{"title":"Hannibal S01E04 &amp;OElig;uf [Oeuf] Complete WebRip XviD titler","uid":8425547,"size":375783900,"categoryP":"video","categoryS":"movies","magnet":"?xt=urn:btih:368a10d6b2780bf37788eab8920e4cfddd81b236&amp;dn=Hannibal+S01E04+%26OElig%3Buf+%5BOeuf%5D+Complete+WebRip+XviD+titler&amp;tr=udp%3A%2F%2Ftracker.openbittorrent.com%3A80&amp;tr=udp%3A%2F%2Fopen.demonii.com%3A1337&amp;tr=udp%3A%2F%2Ftracker.coppersurfer.tk%3A6969&amp;tr=udp%3A%2F%2Fexodus.desync.com%3A6969","seeders":1,"leechers":0,"uploader":"movieZ.freak","files":2,"time":1367334276,"description":"SOURCE: WEB\n\n\nNo hardcoded subtitles, no logos\n\n\nSAMPLE: Yes\n\n\nGeneral\n-----------\nFormat : AVI\nFormat/Info : Audio Video Interleave\nFile size : 350 MiB\nDuration : 40mn 26s\nOverall bit rate : 1209 Kbps\nWriting application : VirtualDubMod 1.5.4.1\nWriting library : VirtualDubMod build 2178\n\nVideo\n----------\nFormat : MPEG-4 Visual\nFormat profile : Advanced Simple@L5\nFormat settings, BVOP : 1\nFormat settings, QPel : No\nFormat settings, GMC : No warppoints\nFormat settings, Matrix : Custom\nCodec ID : XVID\nCodec ID/Hint : XviD\nDuration : 40mn 26s\nBit rate : 1073 Kbps\nWidth : 720 pixels\nHeight : 416 pixels\nDisplay aspect ratio : 1.731\nFrame rate : 25.000 fps\nColor space : YUV\nChroma subsampling : 4:2:0\nBit depth : 8 bits\nScan type : Progressive\nCompression mode : Lossy\nBits/(Pixel*Frame) : 0.143\nStream size : 310 MiB (89%)\nWriting library : XviD 64\n\nAudio\n----------\nFormat : MPEG Audio\nFormat version : Version 1\nFormat profile : Layer 3\nMode : Joint stereo\nMode extension : MS Stereo\nCodec ID : 55\nCodec ID/Hint : MP3\nDuration : 40mn 26s\nBit rate mode : Constant\nBit rate : 128 Kbps\nChannel(s) : 2 channels\nSampling rate : 48.0 KHz\nCompression mode : Lossy\nStream size : 37.0 MiB (11%)\nAlignment : Aligned on interleaves\nInterleave, duration : 80 ms (2.00 video frames)\nInterleave, preload duration : 504 ms\nWriting library : LAME3.99.5\nLanguage : English","torrent":{"xt":"urn:btih:368a10d6b2780bf37788eab8920e4cfddd81b236","amp;dn":"Hannibal+S01E04+%26OElig%3Buf+%5BOeuf%5D+Complete+WebRip+XviD+titler","amp;tr":["udp%3A%2F%2Ftracker.openbittorrent.com%3A80","udp%3A%2F%2Fopen.demonii.com%3A1337","udp%3A%2F%2Ftracker.coppersurfer.tk%3A6969","udp%3A%2F%2Fexodus.desync.com%3A6969"],"infoHash":"368a10d6b2780bf37788eab8920e4cfddd81b236","infoHashBuffer":{"type":"Buffer","data":[54,138,16,214,178,120,11,243,119,136,234,184,146,14,76,253,221,129,178,54]},"announce":[],"urlList":[]}}